HIERARCHY
ROOT Hips
{
	OFFSET 0.00000 0.00000 0.00000
	CHANNELS 6 Xposition Yposition Zposition Zrotation Yrotation Xrotation 
	JOINT LHipJoint
	{
		OFFSET 0 0 0
		CHANNELS 3 Zrotation Yrotation Xrotation
		JOINT LeftUpLeg
		{
			OFFSET 1.58895 -1.83665 0.71753
			CHANNELS 3 Zrotation Yrotation Xrotation
			JOINT LeftLeg
			{
				OFFSET 2.50528 -6.88321 0.00000
				CHANNELS 3 Zrotation Yrotation Xrotation
				JOINT LeftFoot
				{
					OFFSET 2.63244 -7.23257 0.00000
					CHANNELS 3 Zrotation Yrotation Xrotation
					JOINT LeftToeBase
					{
						OFFSET 0.23691 -0.65090 1.72750
						CHANNELS 3 Zrotation Yrotation Xrotation
						End Site
						{
							OFFSET 0.00000 -0.00000 0.92561
						}
					}
				}
			}
		}
	}
	JOINT RHipJoint
	{
		OFFSET 0 0 0
		CHANNELS 3 Zrotation Yrotation Xrotation
		JOINT RightUpLeg
		{
			OFFSET -1.51435 -1.83665 0.71753
			CHANNELS 3 Zrotation Yrotation Xrotation
			JOINT RightLeg
			{
				OFFSET -2.54551 -6.99375 0.00000
				CHANNELS 3 Zrotation Yrotation Xrotation
				JOINT RightFoot
				{
					OFFSET -2.66027 -7.30903 0.00000
					CHANNELS 3 Zrotation Yrotation Xrotation
					JOINT RightToeBase
					{
						OFFSET -0.22981 -0.63138 2.03959
						CHANNELS 3 Zrotation Yrotation Xrotation
						End Site
						{
							OFFSET -0.00000 -0.00000 1.07060
						}
					}
				}
			}
		}
	}
	JOINT LowerBack
	{
		OFFSET 0 0 0
		CHANNELS 3 Zrotation Yrotation Xrotation
		JOINT Spine
		{
			OFFSET -0.02651 1.86275 -0.11152
			CHANNELS 3 Zrotation Yrotation Xrotation
			JOINT Spine1
			{
				OFFSET 0.01019 1.86224 0.04087
				CHANNELS 3 Zrotation Yrotation Xrotation
				JOINT Neck
				{
					OFFSET 0 0 0
					CHANNELS 3 Zrotation Yrotation Xrotation
					JOINT Neck1
					{
						OFFSET -0.01926 1.80512 0.08867
						CHANNELS 3 Zrotation Yrotation Xrotation
						JOINT Head
						{
							OFFSET 0.05516 1.76451 -0.38475
							CHANNELS 3 Zrotation Yrotation Xrotation
							End Site
							{
								OFFSET 0.01592 1.82587 -0.14001
							}
						}
					}
				}
				JOINT LeftShoulder
				{
					OFFSET 0 0 0
					CHANNELS 3 Zrotation Yrotation Xrotation
					JOINT LeftArm
					{
						OFFSET 3.47116 1.51376 0.14491
						CHANNELS 3 Zrotation Yrotation Xrotation
						JOINT LeftForeArm
						{
							OFFSET 4.78095 -0.00000 0.00000
							CHANNELS 3 Zrotation Yrotation Xrotation
							JOINT LeftHand
							{
								OFFSET 3.58615 -0.00000 -0.00000
								CHANNELS 3 Zrotation Yrotation Xrotation
								JOINT LeftFingerBase
								{
									OFFSET 0 0 0
									CHANNELS 3 Zrotation Yrotation Xrotation
									JOINT LeftHandIndex1
									{
										OFFSET 0.65981 -0.00000 0.00000
										CHANNELS 3 Zrotation Yrotation Xrotation
										End Site
										{
											OFFSET 0.53196 -0.00000 0.00000
										}
									}
								}
								JOINT LThumb
								{
									OFFSET 0 0 0
									CHANNELS 3 Zrotation Yrotation Xrotation
									End Site
									{
										OFFSET 0.54008 -0.00000 0.54008
									}
								}
							}
						}
					}
				}
				JOINT RightShoulder
				{
					OFFSET 0 0 0
					CHANNELS 3 Zrotation Yrotation Xrotation
					JOINT RightArm
					{
						OFFSET -3.31725 1.61216 0.35156
						CHANNELS 3 Zrotation Yrotation Xrotation
						JOINT RightForeArm
						{
							OFFSET -4.48913 -0.00000 0.00000
							CHANNELS 3 Zrotation Yrotation Xrotation
							JOINT RightHand
							{
								OFFSET -3.70510 -0.00000 0.00000
								CHANNELS 3 Zrotation Yrotation Xrotation
								JOINT RightFingerBase
								{
									OFFSET 0 0 0
									CHANNELS 3 Zrotation Yrotation Xrotation
									JOINT RightHandIndex1
									{
										OFFSET -0.44914 -0.00000 0.00000
										CHANNELS 3 Zrotation Yrotation Xrotation
										End Site
										{
											OFFSET -0.36211 -0.00000 0.00000
										}
									}
								}
								JOINT RThumb
								{
									OFFSET 0 0 0
									CHANNELS 3 Zrotation Yrotation Xrotation
									End Site
									{
										OFFSET -0.36763 -0.00000 0.36763
									}
								}
							}
						}
					}
				}
			}
		}
	}
}
MOTION
Frames: 11
Frame Time: .0083333
-0.7391 18.698 5.9712 0 0 0 0 0 0 -21 0 0 0 0 0 0 0 0 0 0 0 0 0 0 21 0 0 0 0 0 0 0 0 0 0 0 0 0 0 0 0 0 0 0 0 0 0 -16 0 0 21 0 0 11 0 0 0 -8 0 0 0 0 0 0 0 0 0 0 0 0 0 0 0 0 0 0 0 0 8 0 0 0 0 0 0 0 0 0 0 0 0 0 0 0 0 0
-0.7391 18.6980 5.9712 1.6182 2.4811 1.1053 0.0000 0.0000 0.0000 -16.1743 -7.8332 -1.3816 1.0593 6.5440 18.3711 1.0711 2.2856 -20.4987 8.8038 -16.6798 -55.4091 0.0000 0.0000 0.0000 0.0000 0.0000 0.0000 0.0000 0.0000 0.0000 -0.0000 -0.0000 0.0000 -0.0000 -0.0000 0.0000 -2.3296 0.4342 3.7526 0.0787 0.4556 -1.8849 1.3548 0.2905 -4.0689 -1.4516 -1.6510 -12.2822 0.6952 -2.2350 31.2293 0.2049 -1.0689 12.3685 -0.0000 0.0000 0.0000 -93.9471 10.8039 28.5982 20.0870 -30.7471 -5.5758 -0.0000 -0.0000 14.4602 4.0685 -26.9612 -1.8471 -7.1250 0.0000 -0.0000 -15.4718 3.7808 14.9847 -0.0000 0.0000 0.0000 90.0761 -16.0802 28.7136 -23.3415 34.4601 -7.3306 0.0000 0.0000 21.1463 -3.5957 -34.5845 2.0428 7.1250 -0.0000 -0.0000 34.5721 -61.1876 -14.6067
-0.7393 18.6984 5.9693 1.6057 2.5547 1.0945 0.0000 0.0000 0.0000 -16.1457 -7.8363 -1.3896 1.0600 6.5461 18.3775 1.0695 2.2135 -20.4507 8.7882 -16.6694 -55.3546 0.0000 0.0000 0.0000 0.0000 0.0000 0.0000 0.0000 0.0000 0.0000 -0.0000 -0.0000 0.0000 -0.0000 -0.0000 0.0000 -2.3334 0.4094 3.8253 0.0944 0.4208 -1.9066 1.3752 0.2743 -4.1314 -1.4107 -1.6593 -12.2850 0.6138 -2.2319 31.2363 0.1673 -1.0732 12.3702 -0.0000 -0.0000 0.0000 -94.0645 10.6658 28.2208 19.9269 -30.5541 -5.4941 -0.0000 -0.0000 14.8038 4.0140 -27.0653 -1.8288 -7.1250 0.0000 -0.0000 -15.5040 3.6852 15.0468 -0.0000 -0.0000 0.0000 90.0647 -16.1088 28.7309 -23.3332 34.4512 -7.3259 0.0000 0.0000 21.1659 -3.5423 -34.5054 2.0084 7.1250 -0.0000 -0.0000 34.5402 -61.1101 -14.5273
-0.7356 18.6994 5.9647 1.6393 2.4670 1.1348 0.0000 0.0000 0.0000 -16.2008 -7.8358 -1.4251 1.0584 6.5411 18.3627 1.0680 2.2802 -20.4681 8.7784 -16.6630 -55.3206 0.0000 0.0000 0.0000 0.0000 0.0000 0.0000 0.0000 0.0000 0.0000 -0.0000 -0.0000 0.0000 -0.0000 -0.0000 0.0000 -2.3301 0.4381 3.8278 0.0779 0.4584 -1.9121 1.3536 0.2929 -4.1399 -1.4249 -1.6712 -12.3272 0.6407 -2.2541 31.2679 0.1763 -1.0811 12.3929 0.0000 0.0000 0.0000 -94.0868 10.5636 28.1431 19.8639 -30.4780 -5.4621 -0.0000 -0.0000 14.8769 4.0098 -27.0888 -1.8283 -7.1250 0.0000 -0.0000 -15.5066 3.6630 15.0561 0.0000 0.0000 0.0000 90.0717 -16.0904 28.7007 -23.3265 34.4439 -7.3221 0.0000 0.0000 21.1977 -3.5529 -34.3388 2.0059 7.1250 -0.0000 -0.0000 34.3521 -60.9768 -14.3275
-0.7328 18.7001 5.9604 1.6796 2.4024 1.1695 0.0000 0.0000 0.0000 -16.2592 -7.8549 -1.4485 1.0566 6.5358 18.3472 1.0682 2.3697 -20.5113 8.7903 -16.6708 -55.3620 0.0000 0.0000 0.0000 0.0000 0.0000 0.0000 0.0000 0.0000 0.0000 -0.0000 -0.0000 0.0000 -0.0000 -0.0000 0.0000 -2.3421 0.4507 3.8026 0.0615 0.4747 -1.9096 1.3423 0.3008 -4.1236 -1.4659 -1.6645 -12.3506 0.7189 -2.2592 31.3055 0.2122 -1.0779 12.4149 -0.0000 0.0000 0.0000 -94.0023 10.6358 28.4133 19.9709 -30.6073 -5.5165 -0.0000 -0.0000 14.6466 4.0440 -26.9845 -1.8374 -7.1250 0.0000 -0.0000 -15.4862 3.7605 15.0058 -0.0000 0.0000 0.0000 90.0864 -16.0727 28.6682 -23.3195 34.4364 -7.3182 0.0000 0.0000 21.2586 -3.5853 -34.1594 2.0149 7.1250 -0.0000 -0.0000 34.1306 -60.8379 -14.1086
-0.7314 18.7002 5.9584 1.7423 2.4345 1.1724 0.0000 0.0000 0.0000 -16.3307 -7.8790 -1.4425 1.0549 6.5307 18.3321 1.0681 2.3999 -20.5247 8.8085 -16.6829 -55.4253 0.0000 0.0000 0.0000 0.0000 0.0000 0.0000 0.0000 0.0000 0.0000 -0.0000 -0.0000 0.0000 -0.0000 -0.0000 0.0000 -2.3926 0.4314 3.7915 0.0393 0.4457 -1.9004 1.3500 0.2872 -4.1069 -1.4374 -1.6371 -12.3551 0.7119 -2.2242 31.3028 0.2095 -1.0599 12.4138 -0.0000 0.0000 0.0000 -93.8849 10.7739 28.7373 20.1212 -30.7881 -5.5933 -0.0000 -0.0000 14.3824 4.1003 -26.8395 -1.8538 -7.1250 0.0000 -0.0000 -15.4528 3.8952 14.9309 -0.0000 0.0000 0.0000 90.1301 -16.0398 28.6402 -23.2988 34.4140 -7.3065 0.0000 0.0000 21.3020 -3.6617 -34.0784 2.0537 7.1250 -0.0000 -0.0000 33.9702 -60.7899 -13.9941
-0.7300 18.7001 5.9568 1.7681 2.4569 1.1726 0.0000 0.0000 0.0000 -16.3538 -7.8493 -1.4620 1.0536 6.5268 18.3208 1.0671 2.3198 -20.4783 8.7914 -16.6716 -55.3660 0.0000 0.0000 0.0000 0.0000 0.0000 0.0000 0.0000 0.0000 0.0000 -0.0000 -0.0000 0.0000 -0.0000 -0.0000 0.0000 -2.4133 0.4135 3.7935 0.0405 0.4208 -1.8936 1.3647 0.2753 -4.1002 -1.4385 -1.6187 -12.3781 0.6870 -2.1889 31.3046 0.2050 -1.0474 12.4186 -0.0000 0.0000 0.0000 -93.8609 10.8331 28.8456 20.1971 -30.8791 -5.6322 -0.0000 -0.0000 14.2825 4.1086 -26.7481 -1.8517 -7.1250 0.0000 -0.0000 -15.4477 3.9825 14.8997 -0.0000 0.0000 0.0000 90.1368 -15.9994 28.6516 -23.2731 34.3861 -7.2920 0.0000 0.0000 21.2681 -3.7732 -34.0989 2.1174 7.1250 -0.0000 -0.0000 33.8812 -60.8336 -13.9878
-0.7290 18.6998 5.9548 1.7503 2.4723 1.1697 0.0000 0.0000 0.0000 -16.3252 -7.7784 -1.4997 1.0526 6.5239 18.3122 1.0623 2.2522 -20.4027 8.7983 -16.6762 -55.3900 0.0000 0.0000 0.0000 0.0000 0.0000 0.0000 0.0000 0.0000 0.0000 -0.0000 -0.0000 0.0000 -0.0000 -0.0000 0.0000 -2.3990 0.4027 3.8101 0.0615 0.4074 -1.8938 1.3792 0.2687 -4.1093 -1.4427 -1.6175 -12.4088 0.6608 -2.1777 31.3401 0.1969 -1.0461 12.4391 0.0000 -0.0000 0.0000 -93.8986 10.8351 28.8004 20.2091 -30.8935 -5.6383 -0.0000 -0.0000 14.3053 4.0784 -26.8038 -1.8416 -7.1250 0.0000 -0.0000 -15.4655 3.9315 14.9334 0.0000 -0.0000 0.0000 90.0915 -16.0041 28.7080 -23.2849 34.3989 -7.2986 0.0000 0.0000 21.1716 -3.7669 -34.1675 2.1176 7.1250 -0.0000 -0.0000 33.9593 -60.8884 -14.0692
-0.7281 18.7001 5.9535 1.7546 2.4940 1.1638 0.0000 0.0000 0.0000 -16.3367 -7.7814 -1.4993 1.0528 6.5244 18.3137 1.0602 2.3209 -20.4158 8.8468 -16.7081 -55.5587 0.0000 0.0000 0.0000 0.0000 0.0000 0.0000 0.0000 0.0000 0.0000 -0.0000 -0.0000 0.0000 -0.0000 -0.0000 0.0000 -2.4017 0.4004 3.8314 0.0699 0.4039 -1.8993 1.3896 0.2674 -4.1269 -1.4364 -1.6175 -12.4106 0.6372 -2.1719 31.3656 0.1876 -1.0457 12.4495 -0.0000 -0.0000 0.0000 -93.9598 10.7687 28.6424 20.1467 -30.8187 -5.6063 -0.0000 -0.0000 14.4434 4.0526 -26.9761 -1.8408 -7.1250 0.0000 -0.0000 -15.4812 3.7678 14.9984 -0.0000 -0.0000 0.0000 90.0696 -16.0277 28.7198 -23.3031 34.4186 -7.3089 0.0000 0.0000 21.1141 -3.6919 -34.2787 2.0813 7.1250 -0.0000 -0.0000 34.1507 -60.9614 -14.2192
-0.7264 18.7009 5.9527 1.7790 2.4995 1.1744 0.0000 0.0000 0.0000 -16.3654 -7.7861 -1.5157 1.0537 6.5270 18.3215 1.0625 2.3308 -20.4417 8.8463 -16.7078 -55.5571 0.0000 0.0000 0.0000 0.0000 0.0000 0.0000 0.0000 0.0000 0.0000 -0.0000 -0.0000 0.0000 -0.0000 -0.0000 0.0000 -2.4011 0.4080 3.8417 0.0628 0.4133 -1.9131 1.3811 0.2723 -4.1475 -1.4579 -1.6225 -12.3868 0.6531 -2.1787 31.3595 0.1967 -1.0492 12.4426 -0.0000 -0.0000 0.0000 -94.0403 10.6317 28.3919 20.0233 -30.6703 -5.5432 -0.0000 -0.0000 14.6851 3.9579 -27.1139 -1.8061 -7.1250 0.0000 -0.0000 -15.5368 3.6434 15.0937 -0.0000 -0.0000 0.0000 90.0901 -16.0261 28.6851 -23.2805 34.3941 -7.2961 0.0000 0.0000 21.1420 -3.7067 -34.4380 2.0982 7.1250 -0.0000 -0.0000 34.3054 -61.0953 -14.4026
-0.7236 18.7017 5.9499 1.8015 2.4691 1.1942 0.0000 0.0000 0.0000 -16.3725 -7.6605 -1.6338 1.0601 6.5463 18.3779 1.0628 2.2103 -20.3880 8.8252 -16.6939 -55.4835 0.0000 0.0000 0.0000 0.0000 0.0000 0.0000 0.0000 0.0000 0.0000 -0.0000 -0.0000 0.0000 -0.0000 -0.0000 0.0000 -2.3778 0.4254 3.8511 0.0437 0.4368 -1.9207 1.3465 0.2832 -4.1613 -1.4481 -1.6292 -12.3833 0.6530 -2.1907 31.3361 0.1933 -1.0534 12.4323 0.0000 0.0000 0.0000 -94.0203 10.6052 28.4407 20.0212 -30.6679 -5.5422 -0.0000 -0.0000 14.6386 3.9325 -27.0550 -1.7909 -7.1250 0.0000 -0.0000 -15.5515 3.7023 15.0915 0.0000 0.0000 0.0000 90.1271 -16.0103 28.6551 -23.2633 34.3755 -7.2864 0.0000 0.0000 21.2090 -3.8031 -34.5510 2.1590 7.1250 -0.0000 -0.0000 34.3305 -61.2110 -14.5096
